<svg id="e92d6c6f-b9e7-4ca5-8b9c-c6aba211e025" data-name="Capa 2" xmlns="http://www.w3.org/2000/svg" viewBox="0 0 936 936"><defs><style>.a7501a34-4d2c-4461-9043-33856ec0745c{fill:#1d1d1b;}.b5b2224e-313c-4cdd-8689-2a75a562d980{fill:#f6f6f6;}.ad0e67a6-ae99-4613-933f-c9e732cda219{fill:#fff;}</style></defs><path class="a7501a34-4d2c-4461-9043-33856ec0745c" d="M468.2,638.6A45.3,45.3,0,0,1,423,593.4V342.2a45.2,45.2,0,0,1,90.4,0V593.4A45.3,45.3,0,0,1,468.2,638.6Z"/><path class="b5b2224e-313c-4cdd-8689-2a75a562d980" d="M468.2,302.1a40.2,40.2,0,0,1,40.2,40.1V593.4a40.2,40.2,0,1,1-80.4,0V342.2a40.2,40.2,0,0,1,40.2-40.1m0-10h0A50.1,50.1,0,0,0,418,342.2V593.4a50.2,50.2,0,0,0,50.2,50.2h0a50.2,50.2,0,0,0,50.2-50.2V342.2a50.1,50.1,0,0,0-50.2-50.1Z"/><path class="ad0e67a6-ae99-4613-933f-c9e732cda219" d="M474.7,578.3h-3.1V357.9h3.1a1,1,0,0,0,.8-1.5l-3.1-4.1-3.5-4.6a.9.9,0,0,0-1.5,0l-3.4,4.6-3.1,4.1a.9.9,0,0,0,.7,1.5h3.1V578.3h-3.1a.9.9,0,0,0-.7,1.5L464,584l3.4,4.6a.9.9,0,0,0,1.5,0l3.5-4.6,3.1-4.2A1,1,0,0,0,474.7,578.3Z"/></svg>