<svg id="b0810d8e-932e-43b4-9f50-02f114eb5e6e" data-name="Capa 2" xmlns="http://www.w3.org/2000/svg" viewBox="0 0 100 360"><defs><style>.b7c17810-60bc-4b0a-91e3-eeb00cbd7806{fill:#1d1d1b;}.b8cbe43b-7289-4d26-9ef4-abfb5f26af73{fill:#f6f6f6;}.b6568b28-c42b-4b0a-9b78-7dae29566891{fill:#fff;}</style></defs><path class="b7c17810-60bc-4b0a-91e3-eeb00cbd7806" d="M50.2,346.6A45.3,45.3,0,0,1,5,301.4V50.2a45.2,45.2,0,0,1,90.4,0V301.4A45.3,45.3,0,0,1,50.2,346.6Z"/><path class="b8cbe43b-7289-4d26-9ef4-abfb5f26af73" d="M50.2,10A40.3,40.3,0,0,1,90.4,50.2V301.4a40.2,40.2,0,0,1-80.4,0V50.2A40.2,40.2,0,0,1,50.2,10m0-10h0A50.2,50.2,0,0,0,0,50.2V301.4a50.2,50.2,0,0,0,50.2,50.2h0a50.2,50.2,0,0,0,50.2-50.2V50.2A50.2,50.2,0,0,0,50.2,0Z"/><path class="b6568b28-c42b-4b0a-9b78-7dae29566891" d="M56.7,286.3H53.6V65.9h3.1a1,1,0,0,0,.8-1.5l-3.1-4.2-3.5-4.6a.9.9,0,0,0-1.5,0L46,60.2l-3.1,4.2a.9.9,0,0,0,.8,1.5h3V286.3h-3a.9.9,0,0,0-.8,1.5l3.1,4.1,3.4,4.6a.9.9,0,0,0,1.5,0l3.5-4.6,3.1-4.1A1,1,0,0,0,56.7,286.3Z"/></svg>